inDegrees=yes
name=ik_data_2024_11_07_18_54
DataType=double
version=3
OpenSimVersion=4.5.1
endheader
time	pelvis_tilt	pelvis_list	pelvis_rotation	pelvis_tx	pelvis_ty	pelvis_tz	hip_flexion_r	hip_adduction_r	hip_rotation_r	knee_angle_r	knee_angle_r_beta	ankle_angle_r	subtalar_angle_r	mtp_angle_r	hip_flexion_l	hip_adduction_l	hip_rotation_l	knee_angle_l	knee_angle_l_beta	ankle_angle_l	subtalar_angle_l	mtp_angle_l	lumbar_extension	lumbar_bending	lumbar_rotation	arm_flex_r	arm_add_r	arm_rot_r	elbow_flex_r	pro_sup_r	wrist_flex_r	wrist_dev_r	arm_flex_l	arm_add_l	arm_rot_l	elbow_flex_l	pro_sup_l	wrist_flex_l	wrist_dev_l
0.04424	-0.01262937018359022	0.006300920004685853	-19.81126296327349	0	0.9399999999999999	0	0.2894436633388793	-0.007617324443182623	-0.08563806533666685	0.5325648096888826	0.009295009409328	-5.168992598743837	0	0	0.289385072751125	-0.01406214341285324	-0.0830967319695983	0.5327892762860942	0.009298927090510089	-5.168992598743837	0	0	0	0	0	0	-8.857093676873095	0	73.96944100047492	45.37676946912091	0	0	0	-8.857093676873095	0	73.96944100047492	45.37676946912091	0	0
0.08988	-0.09859070188654123	-0.1828093874141091	-20.34767133277238	0	0.9399999999999999	0	0.3772066512189852	0.1312123360252928	0.4575863572978255	0.5530168270112689	0.009651964450278555	-5.168769732044402	0	0	0.2927837650797051	-0.2201362916201801	-0.6141998113360866	0.5153240247277433	0.008994100946127796	-5.168769732044402	0	0	0	0	0	0	-8.858035797770588	0	73.96974604421693	45.37646581747922	0	0	0	-8.858035797770588	0	73.96974604421693	45.37646581747922	0	0
0.13245	-0.1473436264535603	-0.1814274470342247	-20.31095896025787	0	0.9399999999999999	0	0.306745341999189	0.006931259255136385	0.4311154027027744	0.5422943782889661	0.009464822416198112	-5.168679451338999	0	0	0.3557445073679039	-0.2442368608827462	-0.5807675105718053	0.5262809781306911	0.009185335858996831	-5.168679451338999	0	0	0	0	0	0	-8.858411833211308	0	73.96986838174362	45.37634318942571	0	0	0	-8.858411833211308	0	73.96986838174362	45.37634318942571	0	0
0.17598	-0.2053714533510418	-0.2058285601331864	-20.35266815584569	0	0.9399999999999999	0	0.2753844264724706	-0.08918707600910547	0.4759156770113205	0.5654752577090113	0.009869405085585694	-5.168596655274314	0	0	0.3995217422922153	-0.2856849628366733	-0.6186312880649865	0.5284096213906107	0.009222487692482814	-5.168596655274314	0	0	0	0	0	0	-8.858757927195574	0	73.96998085135631	45.37623063907046	0	0	0	-8.858757927195574	0	73.96998085135631	45.37623063907046	0	0
0.22302	-0.2708078320273237	-0.3062946516713078	-20.72051561910457	0	0.9399999999999999	0	0.3721016703443071	-0.07093026215371319	0.856503304213728	0.5442778648915659	0.009499440788082675	-5.168394533307879	0	0	0.4058760523510882	-0.3962311033414458	-0.9820391437067922	0.5144307173878423	0.00897850979181429	-5.168394533307879	0	0	0	0	0	0	-8.859608872338981	0	73.97025680531119	45.37595540182758	0	0	0	-8.859608872338981	0	73.97025680531119	45.37595540182758	0	0
0.27047	-0.2626420888474821	-0.3314180029269079	-20.83712687971343	0	0.9399999999999999	0	0.3502878148809478	-0.07838014287216909	0.9765552783942161	0.5537813375205357	0.009665307675831359	-5.168241751068845	0	0	0.3937702208290306	-0.4236725830338713	-1.106462680832653	0.5216222881659917	0.009104026380283209	-5.168241751068845	0	0	0	0	0	0	-8.8602640200797	0	73.97046888745777	45.37574570229093	0	0	0	-8.8602640200797	0	73.97046888745777	45.37574570229093	0	0
0.30735	-0.3288141769179128	-0.3196343856699659	-20.79882330620419	0	0.9399999999999999	0	0.3571407560577611	-0.1131860660054233	0.9459159519538278	0.5311012000090305	0.009269464601450519	-5.168141979105599	0	0	0.4548093770943054	-0.4357819918327345	-1.069239036077875	0.5176567572017475	0.009034814808367363	-5.168141979105599	0	0	0	0	0	0	-8.860682447401812	0	73.9706049860965	45.37560971285598	0	0	0	-8.860682447401812	0	73.9706049860965	45.37560971285598	0	0
0.36045	-0.5269536845734359	-0.1934773752823632	-20.42128713360279	0	0.9399999999999999	0	0.355687359496394	-0.1533980888854546	0.5781763928671981	0.4424449797984236	0.007722121656402289	-5.167949403359454	0	0	0.7030198629138029	-0.3738458588741153	-0.6904381123843439	0.5315128169967461	0.009276648673143298	-5.167949403359454	0	0	0	0	0	0	-8.861493613124706	0	73.97086807536539	45.37534735120244	0	0	0	-8.861493613124706	0	73.97086807536539	45.37534735120244	0	0
0.40353	-0.6450878994932686	0.1256692482098369	-19.4548841235627	0	0.9399999999999999	0	0.2375551779584552	-0.4833133398749996	-0.393971826482201	0.4427788650358354	0.007727949053118927	-5.167717025821641	0	0	0.9379590451258185	-0.09911897200115025	0.2752864437313194	0.5391553580330587	0.009410036177445732	-5.167717025821641	0	0	0	0	0	0	-8.862475786889041	0	73.9711864095615	45.37503039449192	0	0	0	-8.862475786889041	0	73.9711864095615	45.37503039449192	0	0
0.4495	-0.8635317676829002	0.2638244947383532	-19.01894615431456	0	0.9399999999999999	0	0.1927572533166136	-0.7953798957814828	-0.8067046793970825	0.391429684658905	0.006831736787341031	-5.167478453830578	0	0	1.17099818365088	-0.03780820824264155	0.7083279808127061	0.5183469578944137	0.009046861082953932	-5.167478453830578	0	0	0	0	0	0	-8.863467102332654	0	73.97150945485078	45.37470616017758	0	0	0	-8.863467102332654	0	73.97150945485078	45.37470616017758	0	0
0.49433	-1.111274819368525	0.3958644911859267	-18.63552748585816	0	0.9399999999999999	0	0.1834984077159221	-0.7918420943789412	-1.202637051543422	0.4122780646153668	0.00719560966128808	-5.167265964264471	0	0	1.456545446791038	0.01454481773030984	1.096550123109604	0.5244761804451102	0.009153836197051072	-5.167265964264471	0	0	0	0	0	0	-8.864358982057173	0	73.97179952423495	45.37441638905818	0	0	0	-8.864358982057173	0	73.97179952423495	45.37441638905818	0	0
0.53783	-1.17733498554246	0.2739522413232456	-19.00075353673601	0	0.9399999999999999	0	0.419915518971349	-0.5951448756047863	-0.8532367040487726	0.4343800404150687	0.007581361910188984	-5.167027171237487	0	0	1.462991946674741	-0.1285804920255141	0.7340884576780833	0.4960090249012495	0.008656990604133346	-5.167027171237487	0	0	0	0	0	0	-8.865351747751186	0	73.97212325872371	45.37409152475088	0	0	0	-8.865351747751186	0	73.97212325872371	45.37409152475088	0	0
0.58452	-1.141791961998734	0.5169691616308354	-18.26370890853621	0	0.9399999999999999	0	0.3085295462321886	-0.8747261972060525	-1.591615771048632	0.4605201728751773	0.008037593288525324	-5.166808241503754	0	0	1.52963062586267	0.1325932629426185	1.461296650309419	0.537463033584437	0.009380499543805288	-5.166808241503754	0	0	0	0	0	0	-8.866289331812824	0	73.97242654595215	45.37379136387033	0	0	0	-8.866289331812824	0	73.97242654595215	45.37379136387033	0	0
0.62583	-1.245049403387259	0.9396560039694144	-16.98396793424999	0	0.9399999999999999	0	0.3408609157228309	-1.2736163069478	-2.873636535618022	0.4775060458246443	0.008334052697818966	-5.166577541711305	0	0	1.745384907090583	0.5382382834326649	2.726042631315597	0.5323936788964909	0.009292022613549217	-5.166577541711305	0	0	0	0	0	0	-8.867281255663084	0	73.97274672765853	45.37347505526024	0	0	0	-8.867281255663084	0	73.97274672765853	45.37347505526024	0	0
0.66803	-1.082152504554333	0.9853083742553498	-16.83942768903087	0	0.9399999999999999	0	0.1198612853257555	-1.42113634228317	-3.028074721299731	0.5444408042367609	0.00950228461613737	-5.16515539740792	0	0	1.585813245381844	0.6328957953310311	2.873517072061402	0.5128221800642557	0.008950435519376488	-5.16515539740792	0	0	0	0	0	0	-8.873255661278407	0	73.97469395284489	45.37152986666963	0	0	0	-8.873255661278407	0	73.97469395284489	45.37152986666963	0	0
0.71772	-1.04298192444713	0.863691217819465	-17.20001853468501	0	0.9399999999999999	0	0.2144707143139126	-1.261549266690338	-2.681299184459403	0.6119337865249493	0.01068025937905648	-5.164972179382254	0	0	1.518501716912944	0.5160701831174007	2.519306395237618	0.5164920943411992	0.0090144876067751	-5.164972179382254	0	0	0	0	0	0	-8.874040973750786	0	73.97494814488793	45.37127831561709	0	0	0	-8.874040973750786	0	73.97494814488793	45.37127831561709	0	0
0.75181	-1.133850782411372	0.7211016136349517	-17.66149735008631	0	0.9399999999999999	0	0.4693441339330469	-0.8800287224456469	-2.228568982752956	0.5877654664652275	0.01025844261933854	-5.164768236860303	0	0	1.549006152164065	0.3508075822533827	2.069126362187131	0.4919972688320718	0.008586972251939329	-5.164768236860303	0	0	0	0	0	0	-8.874907024192622	0	73.97522920874724	45.37099894941839	0	0	0	-8.874907024192622	0	73.97522920874724	45.37099894941839	0	0
